0
SECTION
2
HEADER
9
$INSUNITS
70
4
0
ENDSEC
0
SECTION
2
TABLES
0
TABLE
2
LTYPE
0
LTYPE
72
65
70
0
2
CONTINUOUS
3
______
73
0
40
0
0
LTYPE
72
65
70
0
2
DASHED
3
_ _ _ 
73
2
40
7.5
49
5
49
-2.5
0
LTYPE
72
65
70
0
2
DOTTED
3
. . . 
73
2
40
1.5
49
0.5
49
-1
0
ENDTAB
0
TABLE
2
LAYER
0
ENDTAB
0
ENDSEC
0
SECTION
2
ENTITIES
0
LINE
8
0
6
CONTINUOUS
10
189.665146
20
-124.8257545
11
190.4997173
21
-64.0411861
0
ARC
8
0
6
CONTINUOUS
10
187.5
20
-64
40
3
50
359.2133792
51
450
0
LINE
8
0
6
CONTINUOUS
10
187.5
20
-61
11
156.0260346
21
-61
0
LINE
8
0
6
CONTINUOUS
10
154.5927189
20
-60.6354517
11
98.9333158
21
-30.3645483
0
ARC
8
0
6
CONTINUOUS
10
97.5
20
-33
40
3
50
61.4600148
51
90
0
LINE
8
0
6
CONTINUOUS
10
97.5
20
-30
11
78.5
21
-30
0
ARC
8
0
6
CONTINUOUS
10
78.5
20
-33
40
3
50
90
51
120.0685822
0
LINE
8
0
6
CONTINUOUS
10
76.9968912
20
-30.4037211
11
38.9968912
21
-52.4037211
0
ARC
8
0
6
CONTINUOUS
10
40.5
20
-55
40
3
50
120.0685828
51
180
0
LINE
8
0
6
CONTINUOUS
10
37.5
20
-55
11
37.5
21
-109
0
ARC
8
0
6
CONTINUOUS
10
40.5
20
-109
40
3
50
180
51
270
0
LINE
8
0
6
CONTINUOUS
10
40.5
20
-112
11
111.5730888
21
-112
0
LINE
8
0
6
CONTINUOUS
10
114.515775
20
-114.4163923
11
115.4440676
21
-119.0970593
0
ARC
8
0
6
CONTINUOUS
10
118.3867538
20
-118.5134515
40
3
50
191.217615
51
208
0
LINE
8
0
6
CONTINUOUS
10
115.737911
20
-119.9218662
11
124.1883991
21
-135.8149229
0
ARC
8
0
6
CONTINUOUS
10
126.8372419
20
-134.4065082
40
3
50
207.9999999
51
261.8550127
0
LINE
8
0
6
CONTINUOUS
10
126.4122063
20
-137.3762464
11
156.2185851
21
-141.6422026
0
LINE
8
0
6
CONTINUOUS
10
157.2019644
20
-141.9630981
11
173.0507534
21
-150.3900486
0
ARC
8
0
6
CONTINUOUS
10
174.4591681
20
-147.7412058
40
3
50
242.0000003
51
332
0
LINE
8
0
6
CONTINUOUS
10
177.1080109
20
-149.1496205
11
189.3142715
21
-126.1929831
0
ARC
8
0
6
CONTINUOUS
10
186.6654287
20
-124.7845684
40
3
50
332
51
359.2133792
0
ARC
8
0
6
CONTINUOUS
10
156.0260346
20
-58
40
3
50
241.4600171
51
270
0
ARC
8
0
6
CONTINUOUS
10
111.5730888
20
-115
40
3
50
11.2176134
51
90
0
ARC
8
0
6
CONTINUOUS
10
155.7935496
20
-144.6119409
40
3
50
61.9999983
51
81.8550143
0
LINE
8
0
6
CONTINUOUS
10
42.5
20
-107.5
11
57.5
21
-107.5
0
LINE
8
0
6
CONTINUOUS
10
57.5
20
-107.5
11
57.5
21
-92.5
0
LINE
8
0
6
CONTINUOUS
10
57.5
20
-92.5
11
42.5
21
-92.5
0
LINE
8
0
6
CONTINUOUS
10
42.5
20
-92.5
11
42.5
21
-107.5
0
LINE
8
0
6
CONTINUOUS
10
42.5
20
-89.5
11
57.5
21
-89.5
0
LINE
8
0
6
CONTINUOUS
10
57.5
20
-89.5
11
57.5
21
-74.5
0
LINE
8
0
6
CONTINUOUS
10
57.5
20
-74.5
11
42.5
21
-74.5
0
LINE
8
0
6
CONTINUOUS
10
42.5
20
-74.5
11
42.5
21
-89.5
0
LINE
8
0
6
CONTINUOUS
10
42.5
20
-71.5
11
57.5
21
-71.5
0
LINE
8
0
6
CONTINUOUS
10
57.5
20
-71.5
11
57.5
21
-56.5
0
LINE
8
0
6
CONTINUOUS
10
57.5
20
-56.5
11
42.5
21
-56.5
0
LINE
8
0
6
CONTINUOUS
10
42.5
20
-56.5
11
42.5
21
-71.5
0
LINE
8
0
6
CONTINUOUS
10
61.5
20
-98.5
11
76.5
21
-98.5
0
LINE
8
0
6
CONTINUOUS
10
76.5
20
-98.5
11
76.5
21
-83.5
0
LINE
8
0
6
CONTINUOUS
10
76.5
20
-83.5
11
61.5
21
-83.5
0
LINE
8
0
6
CONTINUOUS
10
61.5
20
-83.5
11
61.5
21
-98.5
0
LINE
8
0
6
CONTINUOUS
10
61.5
20
-80.5
11
76.5
21
-80.5
0
LINE
8
0
6
CONTINUOUS
10
76.5
20
-80.5
11
76.5
21
-65.5
0
LINE
8
0
6
CONTINUOUS
10
76.5
20
-65.5
11
61.5
21
-65.5
0
LINE
8
0
6
CONTINUOUS
10
61.5
20
-65.5
11
61.5
21
-80.5
0
LINE
8
0
6
CONTINUOUS
10
61.5
20
-62.5
11
76.5
21
-62.5
0
LINE
8
0
6
CONTINUOUS
10
76.5
20
-62.5
11
76.5
21
-47.5
0
LINE
8
0
6
CONTINUOUS
10
76.5
20
-47.5
11
61.5
21
-47.5
0
LINE
8
0
6
CONTINUOUS
10
61.5
20
-47.5
11
61.5
21
-62.5
0
LINE
8
0
6
CONTINUOUS
10
80.5
20
-87.5
11
95.5
21
-87.5
0
LINE
8
0
6
CONTINUOUS
10
95.5
20
-87.5
11
95.5
21
-72.5
0
LINE
8
0
6
CONTINUOUS
10
95.5
20
-72.5
11
80.5
21
-72.5
0
LINE
8
0
6
CONTINUOUS
10
80.5
20
-72.5
11
80.5
21
-87.5
0
LINE
8
0
6
CONTINUOUS
10
80.5
20
-69.5
11
95.5
21
-69.5
0
LINE
8
0
6
CONTINUOUS
10
95.5
20
-69.5
11
95.5
21
-54.5
0
LINE
8
0
6
CONTINUOUS
10
95.5
20
-54.5
11
80.5
21
-54.5
0
LINE
8
0
6
CONTINUOUS
10
80.5
20
-54.5
11
80.5
21
-69.5
0
LINE
8
0
6
CONTINUOUS
10
80.5
20
-51.5
11
95.5
21
-51.5
0
LINE
8
0
6
CONTINUOUS
10
95.5
20
-51.5
11
95.5
21
-36.5
0
LINE
8
0
6
CONTINUOUS
10
95.5
20
-36.5
11
80.5
21
-36.5
0
LINE
8
0
6
CONTINUOUS
10
80.5
20
-36.5
11
80.5
21
-51.5
0
LINE
8
0
6
CONTINUOUS
10
99.5
20
-96.5
11
114.5
21
-96.5
0
LINE
8
0
6
CONTINUOUS
10
114.5
20
-96.5
11
114.5
21
-81.5
0
LINE
8
0
6
CONTINUOUS
10
114.5
20
-81.5
11
99.5
21
-81.5
0
LINE
8
0
6
CONTINUOUS
10
99.5
20
-81.5
11
99.5
21
-96.5
0
LINE
8
0
6
CONTINUOUS
10
99.5
20
-78.5
11
114.5
21
-78.5
0
LINE
8
0
6
CONTINUOUS
10
114.5
20
-78.5
11
114.5
21
-63.5
0
LINE
8
0
6
CONTINUOUS
10
114.5
20
-63.5
11
99.5
21
-63.5
0
LINE
8
0
6
CONTINUOUS
10
99.5
20
-63.5
11
99.5
21
-78.5
0
LINE
8
0
6
CONTINUOUS
10
99.5
20
-60.5
11
114.5
21
-60.5
0
LINE
8
0
6
CONTINUOUS
10
114.5
20
-60.5
11
114.5
21
-45.5
0
LINE
8
0
6
CONTINUOUS
10
114.5
20
-45.5
11
99.5
21
-45.5
0
LINE
8
0
6
CONTINUOUS
10
99.5
20
-45.5
11
99.5
21
-60.5
0
LINE
8
0
6
CONTINUOUS
10
118.5
20
-107.5
11
133.5
21
-107.5
0
LINE
8
0
6
CONTINUOUS
10
133.5
20
-107.5
11
133.5
21
-92.5
0
LINE
8
0
6
CONTINUOUS
10
133.5
20
-92.5
11
118.5
21
-92.5
0
LINE
8
0
6
CONTINUOUS
10
118.5
20
-92.5
11
118.5
21
-107.5
0
LINE
8
0
6
CONTINUOUS
10
118.5
20
-89.5
11
133.5
21
-89.5
0
LINE
8
0
6
CONTINUOUS
10
133.5
20
-89.5
11
133.5
21
-74.5
0
LINE
8
0
6
CONTINUOUS
10
133.5
20
-74.5
11
118.5
21
-74.5
0
LINE
8
0
6
CONTINUOUS
10
118.5
20
-74.5
11
118.5
21
-89.5
0
LINE
8
0
6
CONTINUOUS
10
118.5
20
-71.5
11
133.5
21
-71.5
0
LINE
8
0
6
CONTINUOUS
10
133.5
20
-71.5
11
133.5
21
-56.5
0
LINE
8
0
6
CONTINUOUS
10
133.5
20
-56.5
11
118.5
21
-56.5
0
LINE
8
0
6
CONTINUOUS
10
118.5
20
-56.5
11
118.5
21
-71.5
0
LINE
8
0
6
CONTINUOUS
10
127.8989298
20
-132.1431437
11
141.1431437
21
-125.1010702
0
LINE
8
0
6
CONTINUOUS
10
141.1431437
20
-125.1010702
11
134.1010702
21
-111.8568563
0
LINE
8
0
6
CONTINUOUS
10
134.1010702
20
-111.8568563
11
120.8568563
21
-118.8989298
0
LINE
8
0
6
CONTINUOUS
10
120.8568563
20
-118.8989298
11
127.8989298
21
-132.1431437
0
LINE
8
0
6
CONTINUOUS
10
145.4338818
20
-129.2671571
11
160.4338818
21
-129.2671571
0
LINE
8
0
6
CONTINUOUS
10
160.4338818
20
-129.2671571
11
160.4338818
21
-114.2671571
0
LINE
8
0
6
CONTINUOUS
10
160.4338818
20
-114.2671571
11
145.4338818
21
-114.2671571
0
LINE
8
0
6
CONTINUOUS
10
145.4338818
20
-114.2671571
11
145.4338818
21
-129.2671571
0
LINE
8
0
6
CONTINUOUS
10
137.5
20
-89.5
11
152.5
21
-89.5
0
LINE
8
0
6
CONTINUOUS
10
152.5
20
-89.5
11
152.5
21
-74.5
0
LINE
8
0
6
CONTINUOUS
10
152.5
20
-74.5
11
137.5
21
-74.5
0
LINE
8
0
6
CONTINUOUS
10
137.5
20
-74.5
11
137.5
21
-89.5
0
LINE
8
0
6
CONTINUOUS
10
170.5
20
-89.5
11
185.5
21
-89.5
0
LINE
8
0
6
CONTINUOUS
10
185.5
20
-89.5
11
185.5
21
-74.5
0
LINE
8
0
6
CONTINUOUS
10
185.5
20
-74.5
11
170.5
21
-74.5
0
LINE
8
0
6
CONTINUOUS
10
170.5
20
-74.5
11
170.5
21
-89.5
0
LINE
8
0
6
CONTINUOUS
10
158.1246376
20
-139.0559819
11
174.0176943
21
-147.5064701
0
LINE
8
0
6
CONTINUOUS
10
174.0176943
20
-147.5064701
11
187.162898
21
-122.7839375
0
LINE
8
0
6
CONTINUOUS
10
187.162898
20
-122.7839375
11
171.2698413
21
-114.3334493
0
LINE
8
0
6
CONTINUOUS
10
171.2698413
20
-114.3334493
11
158.1246376
21
-139.0559819
0
ENDSEC
0
EOF