0
SECTION
2
HEADER
9
$INSUNITS
70
4
0
ENDSEC
0
SECTION
2
TABLES
0
TABLE
2
LTYPE
0
LTYPE
72
65
70
0
2
CONTINUOUS
3
______
73
0
40
0
0
LTYPE
72
65
70
0
2
DASHED
3
_ _ _ 
73
2
40
7.5
49
5
49
-2.5
0
LTYPE
72
65
70
0
2
DOTTED
3
. . . 
73
2
40
1.5
49
0.5
49
-1
0
ENDTAB
0
TABLE
2
LAYER
0
ENDTAB
0
ENDSEC
0
SECTION
2
ENTITIES
0
LINE
8
0
6
CONTINUOUS
10
189.665146
20
-124.8257545
11
190.4997173
21
-64.0411861
0
ARC
8
0
6
CONTINUOUS
10
187.5
20
-64
40
3
50
359.2133792
51
450
0
LINE
8
0
6
CONTINUOUS
10
187.5
20
-61
11
155.8491972
21
-61
0
LINE
8
0
6
CONTINUOUS
10
154.5649383
20
-60.7112135
11
136.8984306
21
-52.3428678
0
LINE
8
0
6
CONTINUOUS
10
136.7854503
20
-52.286409
11
98.8972393
21
-32.3452453
0
ARC
8
0
6
CONTINUOUS
10
97.5
20
-35
40
3
50
62.2414594
51
90
0
LINE
8
0
6
CONTINUOUS
10
97.5
20
-32
11
78.5
21
-32
0
ARC
8
0
6
CONTINUOUS
10
78.5
20
-35
40
3
50
90
51
117.7585403
0
LINE
8
0
6
CONTINUOUS
10
77.1027607
20
-32.3452453
11
39.1027607
21
-52.3452453
0
ARC
8
0
6
CONTINUOUS
10
40.5
20
-55
40
3
50
117.7585406
51
180
0
LINE
8
0
6
CONTINUOUS
10
37.5
20
-55
11
37.5
21
-109
0
ARC
8
0
6
CONTINUOUS
10
40.5
20
-109
40
3
50
180
51
270
0
LINE
8
0
6
CONTINUOUS
10
40.5
20
-112
11
111.5730888
21
-112
0
LINE
8
0
6
CONTINUOUS
10
114.515775
20
-114.4163923
11
115.4440676
21
-119.0970593
0
ARC
8
0
6
CONTINUOUS
10
118.3867538
20
-118.5134515
40
3
50
191.217615
51
208
0
LINE
8
0
6
CONTINUOUS
10
115.737911
20
-119.9218662
11
124.1883991
21
-135.8149229
0
ARC
8
0
6
CONTINUOUS
10
126.8372419
20
-134.4065082
40
3
50
207.9999999
51
261.8550127
0
LINE
8
0
6
CONTINUOUS
10
126.4122063
20
-137.3762464
11
156.2185851
21
-141.6422026
0
LINE
8
0
6
CONTINUOUS
10
157.2019644
20
-141.9630981
11
173.0507534
21
-150.3900486
0
ARC
8
0
6
CONTINUOUS
10
174.4591681
20
-147.7412058
40
3
50
242.0000003
51
332
0
LINE
8
0
6
CONTINUOUS
10
177.1080109
20
-149.1496205
11
189.3142715
21
-126.1929831
0
ARC
8
0
6
CONTINUOUS
10
186.6654287
20
-124.7845684
40
3
50
332
51
359.2133792
0
ARC
8
0
6
CONTINUOUS
10
155.8491972
20
-58
40
3
50
244.6538254
51
270
0
ARC
8
0
6
CONTINUOUS
10
138.1826896
20
-49.6316543
40
3
50
242.2414605
51
244.6538254
0
ARC
8
0
6
CONTINUOUS
10
111.5730888
20
-115
40
3
50
11.2176134
51
90
0
ARC
8
0
6
CONTINUOUS
10
155.7935496
20
-144.6119409
40
3
50
61.9999983
51
81.8550143
0
LINE
8
0
6
CONTINUOUS
10
40.75
20
-108.75
11
59.25
21
-108.75
0
LINE
8
0
6
CONTINUOUS
10
59.25
20
-108.75
11
59.25
21
-91.25
0
LINE
8
0
6
CONTINUOUS
10
59.25
20
-91.25
11
40.75
21
-91.25
0
LINE
8
0
6
CONTINUOUS
10
40.75
20
-91.25
11
40.75
21
-108.75
0
LINE
8
0
6
CONTINUOUS
10
40.75
20
-90.75
11
59.25
21
-90.75
0
LINE
8
0
6
CONTINUOUS
10
59.25
20
-90.75
11
59.25
21
-73.25
0
LINE
8
0
6
CONTINUOUS
10
59.25
20
-73.25
11
40.75
21
-73.25
0
LINE
8
0
6
CONTINUOUS
10
40.75
20
-73.25
11
40.75
21
-90.75
0
LINE
8
0
6
CONTINUOUS
10
40.75
20
-72.75
11
59.25
21
-72.75
0
LINE
8
0
6
CONTINUOUS
10
59.25
20
-72.75
11
59.25
21
-55.25
0
LINE
8
0
6
CONTINUOUS
10
59.25
20
-55.25
11
40.75
21
-55.25
0
LINE
8
0
6
CONTINUOUS
10
40.75
20
-55.25
11
40.75
21
-72.75
0
LINE
8
0
6
CONTINUOUS
10
59.75
20
-99.75
11
78.25
21
-99.75
0
LINE
8
0
6
CONTINUOUS
10
78.25
20
-99.75
11
78.25
21
-82.25
0
LINE
8
0
6
CONTINUOUS
10
78.25
20
-82.25
11
59.75
21
-82.25
0
LINE
8
0
6
CONTINUOUS
10
59.75
20
-82.25
11
59.75
21
-99.75
0
LINE
8
0
6
CONTINUOUS
10
59.75
20
-81.75
11
78.25
21
-81.75
0
LINE
8
0
6
CONTINUOUS
10
78.25
20
-81.75
11
78.25
21
-64.25
0
LINE
8
0
6
CONTINUOUS
10
78.25
20
-64.25
11
59.75
21
-64.25
0
LINE
8
0
6
CONTINUOUS
10
59.75
20
-64.25
11
59.75
21
-81.75
0
LINE
8
0
6
CONTINUOUS
10
59.75
20
-63.75
11
78.25
21
-63.75
0
LINE
8
0
6
CONTINUOUS
10
78.25
20
-63.75
11
78.25
21
-46.25
0
LINE
8
0
6
CONTINUOUS
10
78.25
20
-46.25
11
59.75
21
-46.25
0
LINE
8
0
6
CONTINUOUS
10
59.75
20
-46.25
11
59.75
21
-63.75
0
LINE
8
0
6
CONTINUOUS
10
78.75
20
-88.75
11
97.25
21
-88.75
0
LINE
8
0
6
CONTINUOUS
10
97.25
20
-88.75
11
97.25
21
-71.25
0
LINE
8
0
6
CONTINUOUS
10
97.25
20
-71.25
11
78.75
21
-71.25
0
LINE
8
0
6
CONTINUOUS
10
78.75
20
-71.25
11
78.75
21
-88.75
0
LINE
8
0
6
CONTINUOUS
10
78.75
20
-70.75
11
97.25
21
-70.75
0
LINE
8
0
6
CONTINUOUS
10
97.25
20
-70.75
11
97.25
21
-53.25
0
LINE
8
0
6
CONTINUOUS
10
97.25
20
-53.25
11
78.75
21
-53.25
0
LINE
8
0
6
CONTINUOUS
10
78.75
20
-53.25
11
78.75
21
-70.75
0
LINE
8
0
6
CONTINUOUS
10
78.75
20
-52.75
11
97.25
21
-52.75
0
LINE
8
0
6
CONTINUOUS
10
97.25
20
-52.75
11
97.25
21
-35.25
0
LINE
8
0
6
CONTINUOUS
10
97.25
20
-35.25
11
78.75
21
-35.25
0
LINE
8
0
6
CONTINUOUS
10
78.75
20
-35.25
11
78.75
21
-52.75
0
LINE
8
0
6
CONTINUOUS
10
97.75
20
-97.75
11
116.25
21
-97.75
0
LINE
8
0
6
CONTINUOUS
10
116.25
20
-97.75
11
116.25
21
-80.25
0
LINE
8
0
6
CONTINUOUS
10
116.25
20
-80.25
11
97.75
21
-80.25
0
LINE
8
0
6
CONTINUOUS
10
97.75
20
-80.25
11
97.75
21
-97.75
0
LINE
8
0
6
CONTINUOUS
10
97.75
20
-79.75
11
116.25
21
-79.75
0
LINE
8
0
6
CONTINUOUS
10
116.25
20
-79.75
11
116.25
21
-62.25
0
LINE
8
0
6
CONTINUOUS
10
116.25
20
-62.25
11
97.75
21
-62.25
0
LINE
8
0
6
CONTINUOUS
10
97.75
20
-62.25
11
97.75
21
-79.75
0
LINE
8
0
6
CONTINUOUS
10
97.75
20
-61.75
11
116.25
21
-61.75
0
LINE
8
0
6
CONTINUOUS
10
116.25
20
-61.75
11
116.25
21
-44.25
0
LINE
8
0
6
CONTINUOUS
10
116.25
20
-44.25
11
97.75
21
-44.25
0
LINE
8
0
6
CONTINUOUS
10
97.75
20
-44.25
11
97.75
21
-61.75
0
LINE
8
0
6
CONTINUOUS
10
116.75
20
-108.75
11
135.25
21
-108.75
0
LINE
8
0
6
CONTINUOUS
10
135.25
20
-108.75
11
135.25
21
-91.25
0
LINE
8
0
6
CONTINUOUS
10
135.25
20
-91.25
11
116.75
21
-91.25
0
LINE
8
0
6
CONTINUOUS
10
116.75
20
-91.25
11
116.75
21
-108.75
0
LINE
8
0
6
CONTINUOUS
10
116.75
20
-90.75
11
135.25
21
-90.75
0
LINE
8
0
6
CONTINUOUS
10
135.25
20
-90.75
11
135.25
21
-73.25
0
LINE
8
0
6
CONTINUOUS
10
135.25
20
-73.25
11
116.75
21
-73.25
0
LINE
8
0
6
CONTINUOUS
10
116.75
20
-73.25
11
116.75
21
-90.75
0
LINE
8
0
6
CONTINUOUS
10
116.75
20
-72.75
11
135.25
21
-72.75
0
LINE
8
0
6
CONTINUOUS
10
135.25
20
-72.75
11
135.25
21
-55.25
0
LINE
8
0
6
CONTINUOUS
10
135.25
20
-55.25
11
116.75
21
-55.25
0
LINE
8
0
6
CONTINUOUS
10
116.75
20
-55.25
11
116.75
21
-72.75
0
LINE
8
0
6
CONTINUOUS
10
126.9406109
20
-134.0684034
11
143.2751414
21
-125.3831795
0
LINE
8
0
6
CONTINUOUS
10
143.2751414
20
-125.3831795
11
135.0593891
21
-109.9315966
0
LINE
8
0
6
CONTINUOUS
10
135.0593891
20
-109.9315966
11
118.7248586
21
-118.6168205
0
LINE
8
0
6
CONTINUOUS
10
118.7248586
20
-118.6168205
11
126.9406109
21
-134.0684034
0
LINE
8
0
6
CONTINUOUS
10
143.6838818
20
-130.5171571
11
162.1838818
21
-130.5171571
0
LINE
8
0
6
CONTINUOUS
10
162.1838818
20
-130.5171571
11
162.1838818
21
-113.0171571
0
LINE
8
0
6
CONTINUOUS
10
162.1838818
20
-113.0171571
11
143.6838818
21
-113.0171571
0
LINE
8
0
6
CONTINUOUS
10
143.6838818
20
-113.0171571
11
143.6838818
21
-130.5171571
0
LINE
8
0
6
CONTINUOUS
10
160.3686264
20
-134.3031392
11
160.5893633
21
-134.4205071
0
LINE
8
0
6
CONTINUOUS
10
176.48242
20
-142.8709952
11
176.7031569
21
-142.9883631
0
LINE
8
0
6
CONTINUOUS
10
176.7031569
20
-142.9883631
11
184.9189092
21
-127.5367802
0
LINE
8
0
6
CONTINUOUS
10
184.9189092
20
-127.5367802
11
184.6981723
21
-127.4194123
0
LINE
8
0
6
CONTINUOUS
10
168.8051156
20
-118.9689242
11
168.5843787
21
-118.8515563
0
LINE
8
0
6
CONTINUOUS
10
168.5843787
20
-118.8515563
11
160.3686264
21
-134.3031392
0
LINE
8
0
6
CONTINUOUS
10
135.75
20
-90.75
11
154.25
21
-90.75
0
LINE
8
0
6
CONTINUOUS
10
154.25
20
-90.75
11
154.25
21
-73.25
0
LINE
8
0
6
CONTINUOUS
10
154.25
20
-73.25
11
135.75
21
-73.25
0
LINE
8
0
6
CONTINUOUS
10
135.75
20
-73.25
11
135.75
21
-90.75
0
LINE
8
0
6
CONTINUOUS
10
168.75
20
-90.75
11
187.25
21
-90.75
0
LINE
8
0
6
CONTINUOUS
10
187.25
20
-90.75
11
187.25
21
-73.25
0
LINE
8
0
6
CONTINUOUS
10
187.25
20
-73.25
11
168.75
21
-73.25
0
LINE
8
0
6
CONTINUOUS
10
168.75
20
-73.25
11
168.75
21
-90.75
0
LINE
8
0
6
CONTINUOUS
10
158.1246376
20
-139.0559819
11
174.0176943
21
-147.5064701
0
LINE
8
0
6
CONTINUOUS
10
174.0176943
20
-147.5064701
11
176.48242
21
-142.8709952
0
LINE
8
0
6
CONTINUOUS
10
184.6981723
20
-127.4194123
11
187.162898
21
-122.7839375
0
LINE
8
0
6
CONTINUOUS
10
187.162898
20
-122.7839375
11
171.2698413
21
-114.3334493
0
LINE
8
0
6
CONTINUOUS
10
171.2698413
20
-114.3334493
11
168.8051156
21
-118.9689242
0
LINE
8
0
6
CONTINUOUS
10
160.5893633
20
-134.4205071
11
158.1246376
21
-139.0559819
0
ENDSEC
0
EOF