0
SECTION
2
HEADER
9
$INSUNITS
70
4
0
ENDSEC
0
SECTION
2
TABLES
0
TABLE
2
LTYPE
0
LTYPE
72
65
70
0
2
CONTINUOUS
3
______
73
0
40
0
0
LTYPE
72
65
70
0
2
DASHED
3
_ _ _ 
73
2
40
7.5
49
5
49
-2.5
0
LTYPE
72
65
70
0
2
DOTTED
3
. . . 
73
2
40
1.5
49
0.5
49
-1
0
ENDTAB
0
TABLE
2
LAYER
0
ENDTAB
0
ENDSEC
0
SECTION
2
ENTITIES
0
LINE
8
0
6
CONTINUOUS
10
41.25
20
-108.25
11
58.75
21
-108.25
0
LINE
8
0
6
CONTINUOUS
10
58.75
20
-108.25
11
58.75
21
-91.75
0
LINE
8
0
6
CONTINUOUS
10
58.75
20
-91.75
11
41.25
21
-91.75
0
LINE
8
0
6
CONTINUOUS
10
41.25
20
-91.75
11
41.25
21
-108.25
0
LINE
8
0
6
CONTINUOUS
10
41.25
20
-90.25
11
58.75
21
-90.25
0
LINE
8
0
6
CONTINUOUS
10
58.75
20
-90.25
11
58.75
21
-73.75
0
LINE
8
0
6
CONTINUOUS
10
58.75
20
-73.75
11
41.25
21
-73.75
0
LINE
8
0
6
CONTINUOUS
10
41.25
20
-73.75
11
41.25
21
-90.25
0
LINE
8
0
6
CONTINUOUS
10
41.25
20
-72.25
11
58.75
21
-72.25
0
LINE
8
0
6
CONTINUOUS
10
58.75
20
-72.25
11
58.75
21
-55.75
0
LINE
8
0
6
CONTINUOUS
10
58.75
20
-55.75
11
41.25
21
-55.75
0
LINE
8
0
6
CONTINUOUS
10
41.25
20
-55.75
11
41.25
21
-72.25
0
LINE
8
0
6
CONTINUOUS
10
60.25
20
-99.25
11
77.75
21
-99.25
0
LINE
8
0
6
CONTINUOUS
10
77.75
20
-99.25
11
77.75
21
-82.75
0
LINE
8
0
6
CONTINUOUS
10
77.75
20
-82.75
11
60.25
21
-82.75
0
LINE
8
0
6
CONTINUOUS
10
60.25
20
-82.75
11
60.25
21
-99.25
0
LINE
8
0
6
CONTINUOUS
10
60.25
20
-81.25
11
77.75
21
-81.25
0
LINE
8
0
6
CONTINUOUS
10
77.75
20
-81.25
11
77.75
21
-64.75
0
LINE
8
0
6
CONTINUOUS
10
77.75
20
-64.75
11
60.25
21
-64.75
0
LINE
8
0
6
CONTINUOUS
10
60.25
20
-64.75
11
60.25
21
-81.25
0
LINE
8
0
6
CONTINUOUS
10
60.25
20
-63.25
11
77.75
21
-63.25
0
LINE
8
0
6
CONTINUOUS
10
77.75
20
-63.25
11
77.75
21
-46.75
0
LINE
8
0
6
CONTINUOUS
10
77.75
20
-46.75
11
60.25
21
-46.75
0
LINE
8
0
6
CONTINUOUS
10
60.25
20
-46.75
11
60.25
21
-63.25
0
LINE
8
0
6
CONTINUOUS
10
79.25
20
-88.25
11
96.75
21
-88.25
0
LINE
8
0
6
CONTINUOUS
10
96.75
20
-88.25
11
96.75
21
-71.75
0
LINE
8
0
6
CONTINUOUS
10
96.75
20
-71.75
11
79.25
21
-71.75
0
LINE
8
0
6
CONTINUOUS
10
79.25
20
-71.75
11
79.25
21
-88.25
0
LINE
8
0
6
CONTINUOUS
10
79.25
20
-70.25
11
96.75
21
-70.25
0
LINE
8
0
6
CONTINUOUS
10
96.75
20
-70.25
11
96.75
21
-53.75
0
LINE
8
0
6
CONTINUOUS
10
96.75
20
-53.75
11
79.25
21
-53.75
0
LINE
8
0
6
CONTINUOUS
10
79.25
20
-53.75
11
79.25
21
-70.25
0
LINE
8
0
6
CONTINUOUS
10
79.25
20
-52.25
11
96.75
21
-52.25
0
LINE
8
0
6
CONTINUOUS
10
96.75
20
-52.25
11
96.75
21
-35.75
0
LINE
8
0
6
CONTINUOUS
10
96.75
20
-35.75
11
79.25
21
-35.75
0
LINE
8
0
6
CONTINUOUS
10
79.25
20
-35.75
11
79.25
21
-52.25
0
LINE
8
0
6
CONTINUOUS
10
98.25
20
-97.25
11
115.75
21
-97.25
0
LINE
8
0
6
CONTINUOUS
10
115.75
20
-97.25
11
115.75
21
-80.75
0
LINE
8
0
6
CONTINUOUS
10
115.75
20
-80.75
11
98.25
21
-80.75
0
LINE
8
0
6
CONTINUOUS
10
98.25
20
-80.75
11
98.25
21
-97.25
0
LINE
8
0
6
CONTINUOUS
10
98.25
20
-79.25
11
115.75
21
-79.25
0
LINE
8
0
6
CONTINUOUS
10
115.75
20
-79.25
11
115.75
21
-62.75
0
LINE
8
0
6
CONTINUOUS
10
115.75
20
-62.75
11
98.25
21
-62.75
0
LINE
8
0
6
CONTINUOUS
10
98.25
20
-62.75
11
98.25
21
-79.25
0
LINE
8
0
6
CONTINUOUS
10
98.25
20
-61.25
11
115.75
21
-61.25
0
LINE
8
0
6
CONTINUOUS
10
115.75
20
-61.25
11
115.75
21
-44.75
0
LINE
8
0
6
CONTINUOUS
10
115.75
20
-44.75
11
98.25
21
-44.75
0
LINE
8
0
6
CONTINUOUS
10
98.25
20
-44.75
11
98.25
21
-61.25
0
LINE
8
0
6
CONTINUOUS
10
117.25
20
-108.25
11
134.75
21
-108.25
0
LINE
8
0
6
CONTINUOUS
10
134.75
20
-108.25
11
134.75
21
-91.75
0
LINE
8
0
6
CONTINUOUS
10
134.75
20
-91.75
11
117.25
21
-91.75
0
LINE
8
0
6
CONTINUOUS
10
117.25
20
-91.75
11
117.25
21
-108.25
0
LINE
8
0
6
CONTINUOUS
10
117.25
20
-90.25
11
134.75
21
-90.25
0
LINE
8
0
6
CONTINUOUS
10
134.75
20
-90.25
11
134.75
21
-73.75
0
LINE
8
0
6
CONTINUOUS
10
134.75
20
-73.75
11
117.25
21
-73.75
0
LINE
8
0
6
CONTINUOUS
10
117.25
20
-73.75
11
117.25
21
-90.25
0
LINE
8
0
6
CONTINUOUS
10
117.25
20
-72.25
11
134.75
21
-72.25
0
LINE
8
0
6
CONTINUOUS
10
134.75
20
-72.25
11
134.75
21
-55.75
0
LINE
8
0
6
CONTINUOUS
10
134.75
20
-55.75
11
117.25
21
-55.75
0
LINE
8
0
6
CONTINUOUS
10
117.25
20
-55.75
11
117.25
21
-72.25
0
LINE
8
0
6
CONTINUOUS
10
127.147349
20
-133.3921938
11
142.5989318
21
-125.1764415
0
LINE
8
0
6
CONTINUOUS
10
142.5989318
20
-125.1764415
11
134.852651
21
-110.6078062
0
LINE
8
0
6
CONTINUOUS
10
134.852651
20
-110.6078062
11
119.4010682
21
-118.8235585
0
LINE
8
0
6
CONTINUOUS
10
119.4010682
20
-118.8235585
11
127.147349
21
-133.3921938
0
LINE
8
0
6
CONTINUOUS
10
144.1838818
20
-130.0171571
11
161.6838818
21
-130.0171571
0
LINE
8
0
6
CONTINUOUS
10
161.6838818
20
-130.0171571
11
161.6838818
21
-113.5171571
0
LINE
8
0
6
CONTINUOUS
10
161.6838818
20
-113.5171571
11
144.1838818
21
-113.5171571
0
LINE
8
0
6
CONTINUOUS
10
144.1838818
20
-113.5171571
11
144.1838818
21
-130.0171571
0
LINE
8
0
6
CONTINUOUS
10
161.044836
20
-134.0964012
11
176.4964188
21
-142.3121535
0
LINE
8
0
6
CONTINUOUS
10
176.4964188
20
-142.3121535
11
184.2426996
21
-127.7435182
0
LINE
8
0
6
CONTINUOUS
10
184.2426996
20
-127.7435182
11
168.7911168
21
-119.5277659
0
LINE
8
0
6
CONTINUOUS
10
168.7911168
20
-119.5277659
11
161.044836
21
-134.0964012
0
LINE
8
0
6
CONTINUOUS
10
136.25
20
-90.25
11
153.75
21
-90.25
0
LINE
8
0
6
CONTINUOUS
10
153.75
20
-90.25
11
153.75
21
-73.75
0
LINE
8
0
6
CONTINUOUS
10
153.75
20
-73.75
11
136.25
21
-73.75
0
LINE
8
0
6
CONTINUOUS
10
136.25
20
-73.75
11
136.25
21
-90.25
0
LINE
8
0
6
CONTINUOUS
10
169.25
20
-90.25
11
186.75
21
-90.25
0
LINE
8
0
6
CONTINUOUS
10
186.75
20
-90.25
11
186.75
21
-73.75
0
LINE
8
0
6
CONTINUOUS
10
186.75
20
-73.75
11
169.25
21
-73.75
0
LINE
8
0
6
CONTINUOUS
10
169.25
20
-73.75
11
169.25
21
-90.25
0
ENDSEC
0
EOF