0
SECTION
2
HEADER
9
$INSUNITS
70
4
0
ENDSEC
0
SECTION
2
TABLES
0
TABLE
2
LTYPE
0
LTYPE
72
65
70
0
2
CONTINUOUS
3
______
73
0
40
0
0
LTYPE
72
65
70
0
2
DASHED
3
_ _ _ 
73
2
40
7.5
49
5
49
-2.5
0
LTYPE
72
65
70
0
2
DOTTED
3
. . . 
73
2
40
1.5
49
0.5
49
-1
0
ENDTAB
0
TABLE
2
LAYER
0
ENDTAB
0
ENDSEC
0
SECTION
2
ENTITIES
0
LINE
8
0
6
CONTINUOUS
10
40.75
20
-108.75
11
59.25
21
-108.75
0
LINE
8
0
6
CONTINUOUS
10
59.25
20
-108.75
11
59.25
21
-91.25
0
LINE
8
0
6
CONTINUOUS
10
59.25
20
-91.25
11
40.75
21
-91.25
0
LINE
8
0
6
CONTINUOUS
10
40.75
20
-91.25
11
40.75
21
-108.75
0
LINE
8
0
6
CONTINUOUS
10
40.75
20
-90.75
11
59.25
21
-90.75
0
LINE
8
0
6
CONTINUOUS
10
59.25
20
-90.75
11
59.25
21
-73.25
0
LINE
8
0
6
CONTINUOUS
10
59.25
20
-73.25
11
40.75
21
-73.25
0
LINE
8
0
6
CONTINUOUS
10
40.75
20
-73.25
11
40.75
21
-90.75
0
LINE
8
0
6
CONTINUOUS
10
40.75
20
-72.75
11
59.25
21
-72.75
0
LINE
8
0
6
CONTINUOUS
10
59.25
20
-72.75
11
59.25
21
-55.25
0
LINE
8
0
6
CONTINUOUS
10
59.25
20
-55.25
11
40.75
21
-55.25
0
LINE
8
0
6
CONTINUOUS
10
40.75
20
-55.25
11
40.75
21
-72.75
0
LINE
8
0
6
CONTINUOUS
10
59.75
20
-99.75
11
78.25
21
-99.75
0
LINE
8
0
6
CONTINUOUS
10
78.25
20
-99.75
11
78.25
21
-82.25
0
LINE
8
0
6
CONTINUOUS
10
78.25
20
-82.25
11
59.75
21
-82.25
0
LINE
8
0
6
CONTINUOUS
10
59.75
20
-82.25
11
59.75
21
-99.75
0
LINE
8
0
6
CONTINUOUS
10
59.75
20
-81.75
11
78.25
21
-81.75
0
LINE
8
0
6
CONTINUOUS
10
78.25
20
-81.75
11
78.25
21
-64.25
0
LINE
8
0
6
CONTINUOUS
10
78.25
20
-64.25
11
59.75
21
-64.25
0
LINE
8
0
6
CONTINUOUS
10
59.75
20
-64.25
11
59.75
21
-81.75
0
LINE
8
0
6
CONTINUOUS
10
59.75
20
-63.75
11
78.25
21
-63.75
0
LINE
8
0
6
CONTINUOUS
10
78.25
20
-63.75
11
78.25
21
-46.25
0
LINE
8
0
6
CONTINUOUS
10
78.25
20
-46.25
11
59.75
21
-46.25
0
LINE
8
0
6
CONTINUOUS
10
59.75
20
-46.25
11
59.75
21
-63.75
0
LINE
8
0
6
CONTINUOUS
10
78.75
20
-88.75
11
97.25
21
-88.75
0
LINE
8
0
6
CONTINUOUS
10
97.25
20
-88.75
11
97.25
21
-71.25
0
LINE
8
0
6
CONTINUOUS
10
97.25
20
-71.25
11
78.75
21
-71.25
0
LINE
8
0
6
CONTINUOUS
10
78.75
20
-71.25
11
78.75
21
-88.75
0
LINE
8
0
6
CONTINUOUS
10
78.75
20
-70.75
11
97.25
21
-70.75
0
LINE
8
0
6
CONTINUOUS
10
97.25
20
-70.75
11
97.25
21
-53.25
0
LINE
8
0
6
CONTINUOUS
10
97.25
20
-53.25
11
78.75
21
-53.25
0
LINE
8
0
6
CONTINUOUS
10
78.75
20
-53.25
11
78.75
21
-70.75
0
LINE
8
0
6
CONTINUOUS
10
78.75
20
-52.75
11
97.25
21
-52.75
0
LINE
8
0
6
CONTINUOUS
10
97.25
20
-52.75
11
97.25
21
-35.25
0
LINE
8
0
6
CONTINUOUS
10
97.25
20
-35.25
11
78.75
21
-35.25
0
LINE
8
0
6
CONTINUOUS
10
78.75
20
-35.25
11
78.75
21
-52.75
0
LINE
8
0
6
CONTINUOUS
10
97.75
20
-97.75
11
116.25
21
-97.75
0
LINE
8
0
6
CONTINUOUS
10
116.25
20
-97.75
11
116.25
21
-80.25
0
LINE
8
0
6
CONTINUOUS
10
116.25
20
-80.25
11
97.75
21
-80.25
0
LINE
8
0
6
CONTINUOUS
10
97.75
20
-80.25
11
97.75
21
-97.75
0
LINE
8
0
6
CONTINUOUS
10
97.75
20
-79.75
11
116.25
21
-79.75
0
LINE
8
0
6
CONTINUOUS
10
116.25
20
-79.75
11
116.25
21
-62.25
0
LINE
8
0
6
CONTINUOUS
10
116.25
20
-62.25
11
97.75
21
-62.25
0
LINE
8
0
6
CONTINUOUS
10
97.75
20
-62.25
11
97.75
21
-79.75
0
LINE
8
0
6
CONTINUOUS
10
97.75
20
-61.75
11
116.25
21
-61.75
0
LINE
8
0
6
CONTINUOUS
10
116.25
20
-61.75
11
116.25
21
-44.25
0
LINE
8
0
6
CONTINUOUS
10
116.25
20
-44.25
11
97.75
21
-44.25
0
LINE
8
0
6
CONTINUOUS
10
97.75
20
-44.25
11
97.75
21
-61.75
0
LINE
8
0
6
CONTINUOUS
10
116.75
20
-108.75
11
135.25
21
-108.75
0
LINE
8
0
6
CONTINUOUS
10
135.25
20
-108.75
11
135.25
21
-91.25
0
LINE
8
0
6
CONTINUOUS
10
135.25
20
-91.25
11
116.75
21
-91.25
0
LINE
8
0
6
CONTINUOUS
10
116.75
20
-91.25
11
116.75
21
-108.75
0
LINE
8
0
6
CONTINUOUS
10
116.75
20
-90.75
11
135.25
21
-90.75
0
LINE
8
0
6
CONTINUOUS
10
135.25
20
-90.75
11
135.25
21
-73.25
0
LINE
8
0
6
CONTINUOUS
10
135.25
20
-73.25
11
116.75
21
-73.25
0
LINE
8
0
6
CONTINUOUS
10
116.75
20
-73.25
11
116.75
21
-90.75
0
LINE
8
0
6
CONTINUOUS
10
116.75
20
-72.75
11
135.25
21
-72.75
0
LINE
8
0
6
CONTINUOUS
10
135.25
20
-72.75
11
135.25
21
-55.25
0
LINE
8
0
6
CONTINUOUS
10
135.25
20
-55.25
11
116.75
21
-55.25
0
LINE
8
0
6
CONTINUOUS
10
116.75
20
-55.25
11
116.75
21
-72.75
0
LINE
8
0
6
CONTINUOUS
10
126.9406109
20
-134.0684034
11
143.2751414
21
-125.3831795
0
LINE
8
0
6
CONTINUOUS
10
143.2751414
20
-125.3831795
11
135.0593891
21
-109.9315966
0
LINE
8
0
6
CONTINUOUS
10
135.0593891
20
-109.9315966
11
118.7248586
21
-118.6168205
0
LINE
8
0
6
CONTINUOUS
10
118.7248586
20
-118.6168205
11
126.9406109
21
-134.0684034
0
LINE
8
0
6
CONTINUOUS
10
143.6838818
20
-130.5171571
11
162.1838818
21
-130.5171571
0
LINE
8
0
6
CONTINUOUS
10
162.1838818
20
-130.5171571
11
162.1838818
21
-113.0171571
0
LINE
8
0
6
CONTINUOUS
10
162.1838818
20
-113.0171571
11
143.6838818
21
-113.0171571
0
LINE
8
0
6
CONTINUOUS
10
143.6838818
20
-113.0171571
11
143.6838818
21
-130.5171571
0
LINE
8
0
6
CONTINUOUS
10
160.3686264
20
-134.3031392
11
176.7031569
21
-142.9883631
0
LINE
8
0
6
CONTINUOUS
10
176.7031569
20
-142.9883631
11
184.9189092
21
-127.5367802
0
LINE
8
0
6
CONTINUOUS
10
184.9189092
20
-127.5367802
11
168.5843787
21
-118.8515563
0
LINE
8
0
6
CONTINUOUS
10
168.5843787
20
-118.8515563
11
160.3686264
21
-134.3031392
0
LINE
8
0
6
CONTINUOUS
10
135.75
20
-90.75
11
154.25
21
-90.75
0
LINE
8
0
6
CONTINUOUS
10
154.25
20
-90.75
11
154.25
21
-73.25
0
LINE
8
0
6
CONTINUOUS
10
154.25
20
-73.25
11
135.75
21
-73.25
0
LINE
8
0
6
CONTINUOUS
10
135.75
20
-73.25
11
135.75
21
-90.75
0
LINE
8
0
6
CONTINUOUS
10
168.75
20
-90.75
11
187.25
21
-90.75
0
LINE
8
0
6
CONTINUOUS
10
187.25
20
-90.75
11
187.25
21
-73.25
0
LINE
8
0
6
CONTINUOUS
10
187.25
20
-73.25
11
168.75
21
-73.25
0
LINE
8
0
6
CONTINUOUS
10
168.75
20
-73.25
11
168.75
21
-90.75
0
ENDSEC
0
EOF