0
SECTION
2
HEADER
9
$INSUNITS
70
4
0
ENDSEC
0
SECTION
2
TABLES
0
TABLE
2
LTYPE
0
LTYPE
72
65
70
0
2
CONTINUOUS
3
______
73
0
40
0
0
LTYPE
72
65
70
0
2
DASHED
3
_ _ _ 
73
2
40
7.5
49
5
49
-2.5
0
LTYPE
72
65
70
0
2
DOTTED
3
. . . 
73
2
40
1.5
49
0.5
49
-1
0
ENDTAB
0
TABLE
2
LAYER
0
ENDTAB
0
ENDSEC
0
SECTION
2
ENTITIES
0
LINE
8
0
6
CONTINUOUS
10
42.5
20
-107.5
11
57.5
21
-107.5
0
LINE
8
0
6
CONTINUOUS
10
57.5
20
-107.5
11
57.5
21
-92.5
0
LINE
8
0
6
CONTINUOUS
10
57.5
20
-92.5
11
42.5
21
-92.5
0
LINE
8
0
6
CONTINUOUS
10
42.5
20
-92.5
11
42.5
21
-107.5
0
LINE
8
0
6
CONTINUOUS
10
42.5
20
-89.5
11
57.5
21
-89.5
0
LINE
8
0
6
CONTINUOUS
10
57.5
20
-89.5
11
57.5
21
-74.5
0
LINE
8
0
6
CONTINUOUS
10
57.5
20
-74.5
11
42.5
21
-74.5
0
LINE
8
0
6
CONTINUOUS
10
42.5
20
-74.5
11
42.5
21
-89.5
0
LINE
8
0
6
CONTINUOUS
10
42.5
20
-71.5
11
57.5
21
-71.5
0
LINE
8
0
6
CONTINUOUS
10
57.5
20
-71.5
11
57.5
21
-56.5
0
LINE
8
0
6
CONTINUOUS
10
57.5
20
-56.5
11
42.5
21
-56.5
0
LINE
8
0
6
CONTINUOUS
10
42.5
20
-56.5
11
42.5
21
-71.5
0
LINE
8
0
6
CONTINUOUS
10
61.5
20
-98.5
11
76.5
21
-98.5
0
LINE
8
0
6
CONTINUOUS
10
76.5
20
-98.5
11
76.5
21
-83.5
0
LINE
8
0
6
CONTINUOUS
10
76.5
20
-83.5
11
61.5
21
-83.5
0
LINE
8
0
6
CONTINUOUS
10
61.5
20
-83.5
11
61.5
21
-98.5
0
LINE
8
0
6
CONTINUOUS
10
61.5
20
-80.5
11
76.5
21
-80.5
0
LINE
8
0
6
CONTINUOUS
10
76.5
20
-80.5
11
76.5
21
-65.5
0
LINE
8
0
6
CONTINUOUS
10
76.5
20
-65.5
11
61.5
21
-65.5
0
LINE
8
0
6
CONTINUOUS
10
61.5
20
-65.5
11
61.5
21
-80.5
0
LINE
8
0
6
CONTINUOUS
10
61.5
20
-62.5
11
76.5
21
-62.5
0
LINE
8
0
6
CONTINUOUS
10
76.5
20
-62.5
11
76.5
21
-47.5
0
LINE
8
0
6
CONTINUOUS
10
76.5
20
-47.5
11
61.5
21
-47.5
0
LINE
8
0
6
CONTINUOUS
10
61.5
20
-47.5
11
61.5
21
-62.5
0
LINE
8
0
6
CONTINUOUS
10
80.5
20
-87.5
11
95.5
21
-87.5
0
LINE
8
0
6
CONTINUOUS
10
95.5
20
-87.5
11
95.5
21
-72.5
0
LINE
8
0
6
CONTINUOUS
10
95.5
20
-72.5
11
80.5
21
-72.5
0
LINE
8
0
6
CONTINUOUS
10
80.5
20
-72.5
11
80.5
21
-87.5
0
LINE
8
0
6
CONTINUOUS
10
80.5
20
-69.5
11
95.5
21
-69.5
0
LINE
8
0
6
CONTINUOUS
10
95.5
20
-69.5
11
95.5
21
-54.5
0
LINE
8
0
6
CONTINUOUS
10
95.5
20
-54.5
11
80.5
21
-54.5
0
LINE
8
0
6
CONTINUOUS
10
80.5
20
-54.5
11
80.5
21
-69.5
0
LINE
8
0
6
CONTINUOUS
10
80.5
20
-51.5
11
95.5
21
-51.5
0
LINE
8
0
6
CONTINUOUS
10
95.5
20
-51.5
11
95.5
21
-36.5
0
LINE
8
0
6
CONTINUOUS
10
95.5
20
-36.5
11
80.5
21
-36.5
0
LINE
8
0
6
CONTINUOUS
10
80.5
20
-36.5
11
80.5
21
-51.5
0
LINE
8
0
6
CONTINUOUS
10
99.5
20
-96.5
11
114.5
21
-96.5
0
LINE
8
0
6
CONTINUOUS
10
114.5
20
-96.5
11
114.5
21
-81.5
0
LINE
8
0
6
CONTINUOUS
10
114.5
20
-81.5
11
99.5
21
-81.5
0
LINE
8
0
6
CONTINUOUS
10
99.5
20
-81.5
11
99.5
21
-96.5
0
LINE
8
0
6
CONTINUOUS
10
99.5
20
-78.5
11
114.5
21
-78.5
0
LINE
8
0
6
CONTINUOUS
10
114.5
20
-78.5
11
114.5
21
-63.5
0
LINE
8
0
6
CONTINUOUS
10
114.5
20
-63.5
11
99.5
21
-63.5
0
LINE
8
0
6
CONTINUOUS
10
99.5
20
-63.5
11
99.5
21
-78.5
0
LINE
8
0
6
CONTINUOUS
10
99.5
20
-60.5
11
114.5
21
-60.5
0
LINE
8
0
6
CONTINUOUS
10
114.5
20
-60.5
11
114.5
21
-45.5
0
LINE
8
0
6
CONTINUOUS
10
114.5
20
-45.5
11
99.5
21
-45.5
0
LINE
8
0
6
CONTINUOUS
10
99.5
20
-45.5
11
99.5
21
-60.5
0
LINE
8
0
6
CONTINUOUS
10
118.5
20
-107.5
11
133.5
21
-107.5
0
LINE
8
0
6
CONTINUOUS
10
133.5
20
-107.5
11
133.5
21
-92.5
0
LINE
8
0
6
CONTINUOUS
10
133.5
20
-92.5
11
118.5
21
-92.5
0
LINE
8
0
6
CONTINUOUS
10
118.5
20
-92.5
11
118.5
21
-107.5
0
LINE
8
0
6
CONTINUOUS
10
118.5
20
-89.5
11
133.5
21
-89.5
0
LINE
8
0
6
CONTINUOUS
10
133.5
20
-89.5
11
133.5
21
-74.5
0
LINE
8
0
6
CONTINUOUS
10
133.5
20
-74.5
11
118.5
21
-74.5
0
LINE
8
0
6
CONTINUOUS
10
118.5
20
-74.5
11
118.5
21
-89.5
0
LINE
8
0
6
CONTINUOUS
10
118.5
20
-71.5
11
133.5
21
-71.5
0
LINE
8
0
6
CONTINUOUS
10
133.5
20
-71.5
11
133.5
21
-56.5
0
LINE
8
0
6
CONTINUOUS
10
133.5
20
-56.5
11
118.5
21
-56.5
0
LINE
8
0
6
CONTINUOUS
10
118.5
20
-56.5
11
118.5
21
-71.5
0
LINE
8
0
6
CONTINUOUS
10
127.8989298
20
-132.1431437
11
141.1431437
21
-125.1010702
0
LINE
8
0
6
CONTINUOUS
10
141.1431437
20
-125.1010702
11
134.1010702
21
-111.8568563
0
LINE
8
0
6
CONTINUOUS
10
134.1010702
20
-111.8568563
11
120.8568563
21
-118.8989298
0
LINE
8
0
6
CONTINUOUS
10
120.8568563
20
-118.8989298
11
127.8989298
21
-132.1431437
0
LINE
8
0
6
CONTINUOUS
10
145.4338818
20
-129.2671571
11
160.4338818
21
-129.2671571
0
LINE
8
0
6
CONTINUOUS
10
160.4338818
20
-129.2671571
11
160.4338818
21
-114.2671571
0
LINE
8
0
6
CONTINUOUS
10
160.4338818
20
-114.2671571
11
145.4338818
21
-114.2671571
0
LINE
8
0
6
CONTINUOUS
10
145.4338818
20
-114.2671571
11
145.4338818
21
-129.2671571
0
LINE
8
0
6
CONTINUOUS
10
162.5006241
20
-134.0210299
11
175.744838
21
-141.0631034
0
LINE
8
0
6
CONTINUOUS
10
175.744838
20
-141.0631034
11
182.7869115
21
-127.8188895
0
LINE
8
0
6
CONTINUOUS
10
182.7869115
20
-127.8188895
11
169.5426976
21
-120.776816
0
LINE
8
0
6
CONTINUOUS
10
169.5426976
20
-120.776816
11
162.5006241
21
-134.0210299
0
LINE
8
0
6
CONTINUOUS
10
137.5
20
-89.5
11
152.5
21
-89.5
0
LINE
8
0
6
CONTINUOUS
10
152.5
20
-89.5
11
152.5
21
-74.5
0
LINE
8
0
6
CONTINUOUS
10
152.5
20
-74.5
11
137.5
21
-74.5
0
LINE
8
0
6
CONTINUOUS
10
137.5
20
-74.5
11
137.5
21
-89.5
0
LINE
8
0
6
CONTINUOUS
10
170.5
20
-89.5
11
185.5
21
-89.5
0
LINE
8
0
6
CONTINUOUS
10
185.5
20
-89.5
11
185.5
21
-74.5
0
LINE
8
0
6
CONTINUOUS
10
185.5
20
-74.5
11
170.5
21
-74.5
0
LINE
8
0
6
CONTINUOUS
10
170.5
20
-74.5
11
170.5
21
-89.5
0
ENDSEC
0
EOF