<svg width="94.976mm" height="106.5mm" viewBox="0 0 94.976 106.5" xmlns="http://www.w3.org/2000/svg"><g id="svgGroup" stroke-linecap="round" fill-rule="evenodd" font-size="9pt" stroke="#000" stroke-width="0.25mm" fill="none" style="stroke:#000;stroke-width:0.25mm;fill:none"><path d="M 0 86 L 20.5 86 L 20.5 106.5 L 0 106.5 L 0 86 Z M 0 64.5 L 20.5 64.5 L 20.5 85 L 0 85 L 0 64.5 Z M 0 43 L 20.5 43 L 20.5 63.5 L 0 63.5 L 0 43 Z M 18.619 64.5 L 39.119 64.5 L 39.119 85 L 18.619 85 L 18.619 64.5 Z M 18.619 43 L 39.119 43 L 39.119 63.5 L 18.619 63.5 L 18.619 43 Z M 18.619 21.5 L 39.119 21.5 L 39.119 42 L 18.619 42 L 18.619 21.5 Z M 37.238 43 L 57.738 43 L 57.738 63.5 L 37.238 63.5 L 37.238 43 Z M 37.238 21.5 L 57.738 21.5 L 57.738 42 L 37.238 42 L 37.238 21.5 Z M 37.238 0 L 57.738 0 L 57.738 20.5 L 37.238 20.5 L 37.238 0 Z M 55.857 64.5 L 76.357 64.5 L 76.357 85 L 55.857 85 L 55.857 64.5 Z M 55.857 43 L 76.357 43 L 76.357 63.5 L 55.857 63.5 L 55.857 43 Z M 55.857 21.5 L 76.357 21.5 L 76.357 42 L 55.857 42 L 55.857 21.5 Z M 74.476 86 L 94.976 86 L 94.976 106.5 L 74.476 106.5 L 74.476 86 Z M 74.476 64.5 L 94.976 64.5 L 94.976 85 L 74.476 85 L 74.476 64.5 Z M 74.476 43 L 94.976 43 L 94.976 63.5 L 74.476 63.5 L 74.476 43 Z" vector-effect="non-scaling-stroke"/></g></svg>