0
SECTION
2
HEADER
9
$INSUNITS
70
4
0
ENDSEC
0
SECTION
2
TABLES
0
TABLE
2
LTYPE
0
LTYPE
72
65
70
0
2
CONTINUOUS
3
______
73
0
40
0
0
LTYPE
72
65
70
0
2
DASHED
3
_ _ _ 
73
2
40
7.5
49
5
49
-2.5
0
LTYPE
72
65
70
0
2
DOTTED
3
. . . 
73
2
40
1.5
49
0.5
49
-1
0
ENDTAB
0
TABLE
2
LAYER
0
ENDTAB
0
ENDSEC
0
SECTION
2
ENTITIES
0
LINE
8
0
6
CONTINUOUS
10
-10.25
20
10.25
11
10.25
21
10.25
0
LINE
8
0
6
CONTINUOUS
10
10.25
20
10.25
11
10.25
21
-10.25
0
LINE
8
0
6
CONTINUOUS
10
10.25
20
-10.25
11
-10.25
21
-10.25
0
LINE
8
0
6
CONTINUOUS
10
-10.25
20
-10.25
11
-10.25
21
10.25
0
LINE
8
0
6
CONTINUOUS
10
-10.25
20
31.75
11
10.25
21
31.75
0
LINE
8
0
6
CONTINUOUS
10
10.25
20
31.75
11
10.25
21
11.25
0
LINE
8
0
6
CONTINUOUS
10
10.25
20
11.25
11
-10.25
21
11.25
0
LINE
8
0
6
CONTINUOUS
10
-10.25
20
11.25
11
-10.25
21
31.75
0
LINE
8
0
6
CONTINUOUS
10
-10.25
20
53.25
11
10.25
21
53.25
0
LINE
8
0
6
CONTINUOUS
10
10.25
20
53.25
11
10.25
21
32.75
0
LINE
8
0
6
CONTINUOUS
10
10.25
20
32.75
11
-10.25
21
32.75
0
LINE
8
0
6
CONTINUOUS
10
-10.25
20
32.75
11
-10.25
21
53.25
0
LINE
8
0
6
CONTINUOUS
10
8.369
20
31.75
11
28.869
21
31.75
0
LINE
8
0
6
CONTINUOUS
10
28.869
20
31.75
11
28.869
21
11.25
0
LINE
8
0
6
CONTINUOUS
10
28.869
20
11.25
11
8.369
21
11.25
0
LINE
8
0
6
CONTINUOUS
10
8.369
20
11.25
11
8.369
21
31.75
0
LINE
8
0
6
CONTINUOUS
10
8.369
20
53.25
11
28.869
21
53.25
0
LINE
8
0
6
CONTINUOUS
10
28.869
20
53.25
11
28.869
21
32.75
0
LINE
8
0
6
CONTINUOUS
10
28.869
20
32.75
11
8.369
21
32.75
0
LINE
8
0
6
CONTINUOUS
10
8.369
20
32.75
11
8.369
21
53.25
0
LINE
8
0
6
CONTINUOUS
10
8.369
20
74.75
11
28.869
21
74.75
0
LINE
8
0
6
CONTINUOUS
10
28.869
20
74.75
11
28.869
21
54.25
0
LINE
8
0
6
CONTINUOUS
10
28.869
20
54.25
11
8.369
21
54.25
0
LINE
8
0
6
CONTINUOUS
10
8.369
20
54.25
11
8.369
21
74.75
0
LINE
8
0
6
CONTINUOUS
10
26.988
20
53.25
11
47.488
21
53.25
0
LINE
8
0
6
CONTINUOUS
10
47.488
20
53.25
11
47.488
21
32.75
0
LINE
8
0
6
CONTINUOUS
10
47.488
20
32.75
11
26.988
21
32.75
0
LINE
8
0
6
CONTINUOUS
10
26.988
20
32.75
11
26.988
21
53.25
0
LINE
8
0
6
CONTINUOUS
10
26.988
20
74.75
11
47.488
21
74.75
0
LINE
8
0
6
CONTINUOUS
10
47.488
20
74.75
11
47.488
21
54.25
0
LINE
8
0
6
CONTINUOUS
10
47.488
20
54.25
11
26.988
21
54.25
0
LINE
8
0
6
CONTINUOUS
10
26.988
20
54.25
11
26.988
21
74.75
0
LINE
8
0
6
CONTINUOUS
10
26.988
20
96.25
11
47.488
21
96.25
0
LINE
8
0
6
CONTINUOUS
10
47.488
20
96.25
11
47.488
21
75.75
0
LINE
8
0
6
CONTINUOUS
10
47.488
20
75.75
11
26.988
21
75.75
0
LINE
8
0
6
CONTINUOUS
10
26.988
20
75.75
11
26.988
21
96.25
0
LINE
8
0
6
CONTINUOUS
10
45.607
20
31.75
11
66.107
21
31.75
0
LINE
8
0
6
CONTINUOUS
10
66.107
20
31.75
11
66.107
21
11.25
0
LINE
8
0
6
CONTINUOUS
10
66.107
20
11.25
11
45.607
21
11.25
0
LINE
8
0
6
CONTINUOUS
10
45.607
20
11.25
11
45.607
21
31.75
0
LINE
8
0
6
CONTINUOUS
10
45.607
20
53.25
11
66.107
21
53.25
0
LINE
8
0
6
CONTINUOUS
10
66.107
20
53.25
11
66.107
21
32.75
0
LINE
8
0
6
CONTINUOUS
10
66.107
20
32.75
11
45.607
21
32.75
0
LINE
8
0
6
CONTINUOUS
10
45.607
20
32.75
11
45.607
21
53.25
0
LINE
8
0
6
CONTINUOUS
10
45.607
20
74.75
11
66.107
21
74.75
0
LINE
8
0
6
CONTINUOUS
10
66.107
20
74.75
11
66.107
21
54.25
0
LINE
8
0
6
CONTINUOUS
10
66.107
20
54.25
11
45.607
21
54.25
0
LINE
8
0
6
CONTINUOUS
10
45.607
20
54.25
11
45.607
21
74.75
0
LINE
8
0
6
CONTINUOUS
10
64.226
20
10.25
11
84.726
21
10.25
0
LINE
8
0
6
CONTINUOUS
10
84.726
20
10.25
11
84.726
21
-10.25
0
LINE
8
0
6
CONTINUOUS
10
84.726
20
-10.25
11
64.226
21
-10.25
0
LINE
8
0
6
CONTINUOUS
10
64.226
20
-10.25
11
64.226
21
10.25
0
LINE
8
0
6
CONTINUOUS
10
64.226
20
31.75
11
84.726
21
31.75
0
LINE
8
0
6
CONTINUOUS
10
84.726
20
31.75
11
84.726
21
11.25
0
LINE
8
0
6
CONTINUOUS
10
84.726
20
11.25
11
64.226
21
11.25
0
LINE
8
0
6
CONTINUOUS
10
64.226
20
11.25
11
64.226
21
31.75
0
LINE
8
0
6
CONTINUOUS
10
64.226
20
53.25
11
84.726
21
53.25
0
LINE
8
0
6
CONTINUOUS
10
84.726
20
53.25
11
84.726
21
32.75
0
LINE
8
0
6
CONTINUOUS
10
84.726
20
32.75
11
64.226
21
32.75
0
LINE
8
0
6
CONTINUOUS
10
64.226
20
32.75
11
64.226
21
53.25
0
ENDSEC
0
EOF